<svg xmlns="http://www.w3.org/2000/svg" width="80" height="80" viewBox="0 0 80 80"><path d="m52.73 31.52-4.24-4.25L40 35.76l-8.48-8.49-4.25 4.25L35.76 40l-8.49 8.49 4.25 4.24L40 44.24l8.49 8.49 4.24-4.24L44.24 40z" style="fill:none;stroke:#000;stroke-width:2;stroke-miterlimit:10"/><circle cx="40" cy="40" r="32" style="fill:none;stroke:#000;stroke-width:2;stroke-miterlimit:10"/><circle cx="40" cy="13" r="1"/><circle cx="40" cy="67" r="1"/><circle cx="67" cy="40" r="1"/><circle cx="13" cy="40" r="1"/><circle cx="59.09" cy="20.91" r="1" transform="rotate(-45 59.1 20.9)"/><circle cx="20.91" cy="59.09" r="1" transform="rotate(-45 20.9 59.1)"/><circle cx="59.09" cy="59.09" r="1" transform="rotate(-45 59.1 59.1)"/><circle cx="20.91" cy="20.91" r="1" transform="rotate(-45 20.9 20.9)"/><circle cx="29.67" cy="15.05" r="1" transform="rotate(-22.5 29.67 15.05)"/><circle cx="50.33" cy="64.94" r="1" transform="rotate(-22.5 50.33 64.94)"/><circle cx="64.94" cy="29.67" r="1" transform="rotate(-22.5 64.94 29.66)"/><circle cx="15.05" cy="50.33" r="1" transform="rotate(-22.5 15.06 50.33)"/><circle cx="50.33" cy="15.05" r="1" transform="rotate(-67.5 50.33 15.05)"/><circle cx="29.67" cy="64.94" r="1" transform="rotate(-67.5 29.67 64.94)"/><circle cx="64.94" cy="50.33" r="1" transform="rotate(-67.5 64.95 50.33)"/><circle cx="15.05" cy="29.67" r="1" transform="rotate(-67.5 15.06 29.67)"/><circle cx="34.73" cy="13.52" r="1" transform="rotate(-11.25 34.73 13.52)"/><circle cx="45.27" cy="66.48" r="1" transform="rotate(-11.25 45.27 66.47)"/><circle cx="66.48" cy="34.73" r="1" transform="rotate(-11.25 66.48 34.73)"/><circle cx="13.52" cy="45.27" r="1" transform="matrix(1 0 0 1 -8.57 3.5)"/><circle cx="55" cy="17.55" r="1" transform="rotate(-56.25 55 17.55)"/><circle cx="25" cy="62.45" r="1" transform="rotate(-56.25 25 62.45)"/><circle cx="62.45" cy="55" r="1" transform="rotate(-56.25 62.45 55)"/><circle cx="17.55" cy="25" r="1" transform="rotate(-56.25 17.55 25)"/><circle cx="25" cy="17.55" r="1" transform="rotate(-33.75 25 17.55)"/><circle cx="55" cy="62.45" r="1" transform="rotate(-33.75 55 62.44)"/><circle cx="62.45" cy="25" r="1" transform="rotate(-33.75 62.45 25)"/><circle cx="17.55" cy="55" r="1" transform="rotate(-33.75 17.55 55)"/><circle cx="45.27" cy="13.52" r="1" transform="rotate(-78.75 45.27 13.52)"/><circle cx="34.73" cy="66.48" r="1" transform="rotate(-78.75 34.73 66.48)"/><circle cx="66.48" cy="45.27" r="1" transform="rotate(-78.75 66.48 45.27)"/><circle cx="13.52" cy="34.73" r="1" transform="rotate(-78.75 13.52 34.73)"/></svg>